#!OML:ASF E:/inclinewalkrobotboard/Project1/Captureday1/Session1/subject1.ASF
:FULLY-SPECIFIED
:DEGREES
63
root 0 0 0 85.65488760309492 -33.21356842589462 -56.1383753742677
lowerback -11.456676641763906 9.709035347613836 14.166883902325644
upperback -20.7678691146615 12.307863878673007 3.1154149793168386
thorax -15.192744928775715 4.235985510293586 -3.787876249856204
lowerneck -8.972444486123775 11.95852590955345 6.2478851856470214
upperneck 10.176398787071646 14.247621516664642 9.136505271941466
head 4.539696955168833 7.713017522525188 2.783173099617256
rclavicle 9.395499169888533E-15 7.876840738364325E-15
rhumerus 34.45017171305795 -50.0953178399645 -15.125137026008382
rradius 19.890562353468507
rwrist 40.357534854059885
rhand 0.6323207000397288 2.2806718883844876
rfingers 7.125020000000066
rthumb 26.19668467640251 -25.89434505833804
lclavicle 8.577951477689697E-16 2.024686757769454E-15
lhumerus -7.120857628862884 13.019581253785265 -4.1182789198965395
lradius 20.905368362743097
lwrist -38.929554912855835
lhand 0.5044487353836515 34.35318453715911
lfingers 7.125020000000039
lthumb 26.044249058021794 62.48568817328889
rfemur 206.45408275184886 -182.75011376069833 -174.34373689368363
rtibia 56.762974016499484
rfoot 58.36361700346363 -30.979541934521038
rtoes 15.778184826631042
lfemur -54.33723012795868 25.55120924574059 21.27819562560731
ltibia 23.00915297817333
lfoot -66.16550771971951 8.955392214629665
ltoes 60.37684842893709
64
root 0 0 0 85.64235831849196 -33.20423729930659 -56.127002568013104
lowerback -11.451723329416566 9.709513891950337 14.177095375464573
upperback -20.77663969601865 12.308476069663518 3.1199990480661324
thorax -15.205284677879991 4.2346271748781765 -3.786391317344073
lowerneck -8.962637017438631 11.963112748094911 6.2456258940046645
upperneck 10.16982509954466 14.254817628701378 9.146513503208455
head 4.534645895842391 7.7164853499397665 2.7865822717514432
rclavicle 9.413544028359037E-15 7.880719428789372E-15
rhumerus 34.216787412747536 -50.10401418124616 -14.921246508287005
rradius 19.896116059779924
rwrist 40.367838145416265
rhand 0.6106262636867048 2.2950837875258863
rfingers 7.125020000000066
rthumb 26.175936639280895 -25.885125951163023
lclavicle 8.657683362057066E-16 2.0432800981847572E-15
lhumerus -7.170657200533732 13.01011794720862 -4.138796155021517
lradius 20.903891534563392
lwrist -38.93510289563329
lhand 0.5025705873489195 34.3501396191766
lfingers 7.125020000000039
lthumb 26.042402321904213 62.482373016384855
rfemur 206.42474135913855 -182.73145184557185 -174.32566230116672
rtibia 56.75395067744701
rfoot 58.346716185841416 -31.001390023552652
rtoes 15.777639073215775
lfemur -54.326849549639746 25.555420936673514 21.286046258819788
ltibia 23.004359922240898
lfoot -66.14329196104508 8.941365685147044
ltoes 60.37602553743883
65
root 0 0 0 85.64840213846693 -33.20762629526794 -56.13134593254352
lowerback -11.454885499927514 9.708741034784216 14.169991101616299
upperback -20.772242373154683 12.307555666960134 3.117669144913594
thorax -15.198833216370243 4.235149291488854 -3.7862604527321055
lowerneck -8.968306234046366 11.961335998025618 6.246961736260447
upperneck 10.171326718288826 14.252194662596056 9.140141468417715
head 4.536593794021909 7.715119488621962 2.7846237668431
rclavicle 9.399744683319714E-15 7.846343321334273E-15
rhumerus 34.240580386382895 -50.058801532120064 -15.006359180343736
rradius 19.93786008523788
rwrist 40.359696788302294
rhand 0.5998644695192858 2.3152881620093986
rfingers 7.125020000000066
rthumb 26.165997055236684 -25.86587062159721
lclavicle 8.972712265146114E-16 2.0073526781590527E-15
lhumerus -7.10218023759681 12.984503397766673 -4.201635265266219
lradius 20.92669670117855
lwrist -38.873203820603166
lhand 0.5243359755794692 34.37322433006743
lfingers 7.125020000000039
lthumb 26.062683113677178 62.50026925811785
rfemur 206.44082339209905 -182.75030452420123 -174.34193055995587
rtibia 56.77641951881972
rfoot 58.37558178859929 -30.979413448889424
rtoes 15.758227090745445
lfemur -54.309617469361214 25.544843132843216 21.287416199741216
ltibia 22.98292718680624
lfoot -66.14164011837575 8.917790776250701
ltoes 60.366570488530236
66
root 0 0 0 85.63780332279742 -33.19788321644519 -56.121149760423734
lowerback -11.450235271809168 9.7094078459594 14.180307622324072
upperback -20.78117749489995 12.308280494392386 3.1219476749562975
thorax -15.211277775499124 4.233834077411039 -3.785198234459849
lowerneck -8.9583633450322 11.965810619582374 6.2447947273425
upperneck 10.163876429413438 14.25917278766471 9.15041834338619
head 4.53117212691466 7.718517438213497 2.7880548738775506
rclavicle 9.370570313473225E-15 7.843738071732127E-15
rhumerus 34.05235859392908 -50.08825751172352 -14.832614795814578
rradius 19.914277424971335
rwrist 40.35877090809085
rhand 0.5872882749813813 2.316920030675349
rfingers 7.125020000000066
rthumb 26.153577658227427 -25.867862572312276
lclavicle 8.465241789105381E-16 2.019193063550214E-15
lhumerus -7.121404961864723 12.98788785895858 -4.211287162209146
lradius 20.910728755607522
lwrist -38.90940846439118
lhand 0.5194559509775887 34.36165897894367
lfingers 7.125020000000039
lthumb 26.058266862471573 62.48976628524764
rfemur 206.41292644973146 -182.72896276588432 -174.31799616429407
rtibia 56.759634868592514
rfoot 58.35682902012246 -31.006129181944697
rtoes 15.767770952944419
lfemur -54.315663303586504 25.552039020309223 21.294070052132028
ltibia 22.991498415283992
lfoot -66.12602161790642 8.922615973958466
ltoes 60.36914589092703
67
root 0 0 0 85.63090697261302 -33.19304696323678 -56.11531059587684
lowerback -11.447446592574149 9.709776946168374 14.186029723471895
upperback -20.7857765412234 12.30876282133146 3.124395636385574
thorax -15.217944003795601 4.233178613042725 -3.7845213398467914
lowerneck -8.953061175925876 11.968176657732206 6.243618982358027
upperneck 10.160904070291414 14.262834929772781 9.155940041009421
head 4.528699378748202 7.720305304213458 2.789886082477204
rclavicle 9.401021328180221E-15 7.860360765172074E-15
rhumerus 33.9548620079109 -50.101840740147125 -14.728748699969138
rradius 19.906968330481266
rwrist 40.36890620117724
rhand 0.5811413774175631 2.3179453821797065
rfingers 7.125020000000066
rthumb 26.147679895280504 -25.868670232447407
lclavicle 8.586989922353749E-16 2.03989943721541E-15
lhumerus -7.160420468705293 12.990053863230377 -4.207092357401294
lradius 20.905624142464486
lwrist -38.92265773385432
lhand 0.514195026846141 34.355626915847154
lfingers 7.125020000000039
lthumb 26.053305262097656 62.48473726859774
rfemur 206.3985573904752 -182.71680359359843 -174.30824959393658
rtibia 56.75154245914387
rfoot 58.34448075987821 -31.01844822140249
rtoes 15.772733315569411
lfemur -54.31271783921456 25.556339089284194 21.296847815666943
ltibia 22.993381552249108
lfoot -66.11806390619908 8.921031328908947
ltoes 60.371249905961605
